 <svg id="Livello_2" data-name="Livello 2" xmlns="http://www.w3.org/2000/svg" viewBox="0 0 421.47 301.69">
  <defs>
    <style>
      .cls-1 {
        fill: #ff5e00;
      }

      .cls-1, .cls-2 {
        fill-rule: evenodd;
        stroke-width: 0px;
      }

      .cls-2 {
        fill: #FFF;
      }
    </style>
  </defs>
  <g id="Livello_1-2" data-name="Livello 1">
    <g>
      <path class="cls-2" d="M83.52,202.53h0c-30.8,0-55.82-25.45-55.82-56.69s25.02-56.69,55.82-56.69,55.82,25.45,55.82,56.69-25.02,56.69-55.82,56.69ZM162.72,68.1h-9.49c-7.59,0-13.89,6.22-13.89,13.95v.7c-14.75-13.52-34.33-21.77-55.82-21.77C37.44,60.99,0,99.08,0,145.84s37.44,84.86,83.52,84.86c21.48,0,41.07-8.34,55.82-21.85v7.11c0,31.24-25.1,57.65-55.9,57.65-13.63-.09-26.49-5-36.58-13.95-5-4.39-12.34-4.83-17.6-.7l-8.37,6.49c-2.07,1.67-2.42,4.74-.78,6.76,16.05,18.87,38.91,29.57,63.67,29.48,46.24-.09,83.52-39.05,83.52-86V72.75c0-2.63-2.07-4.64-4.58-4.64Z"/>
      <path class="cls-2" d="M203.01,230.96h9.41c7.68,0,13.89-6.23,13.89-13.95V4.56c0-2.54-2.07-4.56-4.58-4.56h-9.49c-7.68,0-13.89,6.23-13.89,13.95v212.36c0,2.54,2.07,4.65,4.66,4.65Z"/>
      <path class="cls-2" d="M337.86,230.96h0c-46.08,0-83.51-38.17-83.51-85.03s37.44-84.95,83.51-84.95,83.61,38.09,83.61,84.95-37.54,85.03-83.61,85.03Z"/>
      <path class="cls-1" d="M393.51,145.94h0c0,31.23-24.94,56.6-55.65,56.6-30.63,0-55.56-25.36-55.56-56.6s24.94-56.51,55.56-56.51,55.65,25.36,55.65,56.51Z"/>
    </g>
  </g>
</svg>